<svg width="15" height="14" viewBox="0 0 15 14" fill="none" xmlns="http://www.w3.org/2000/svg">
<path d="M5.5 6C6.88071 6 8 4.88071 8 3.5C8 2.11929 6.88071 1 5.5 1C4.11929 1 3 2.11929 3 3.5C3 4.88071 4.11929 6 5.5 6Z" stroke="white" stroke-linecap="round" stroke-linejoin="round"/>
<path d="M1 13.0001H10V12.458C9.99204 11.6958 9.79102 10.948 9.41573 10.2846C9.04043 9.62112 8.5031 9.06362 7.85393 8.66413C7.20475 8.26463 6.46491 8.0362 5.70352 8.00015C5.63564 7.99694 5.56778 7.99526 5.5 7.99512C5.43222 7.99526 5.36436 7.99694 5.29648 8.00015C4.53509 8.0362 3.79525 8.26463 3.14607 8.66413C2.4969 9.06362 1.95957 9.62112 1.58427 10.2846C1.20898 10.948 1.00796 11.6958 1 12.458V13.0001Z" stroke="white" stroke-linecap="round" stroke-linejoin="round"/>
<path d="M9.5 6C10.8807 6 12 4.88071 12 3.5C12 2.11929 10.8807 1 9.5 1" stroke="white" stroke-linecap="round" stroke-linejoin="round"/>
<path d="M12 13.0002H14V12.458C13.992 11.6958 13.791 10.948 13.4157 10.2846C13.0404 9.62112 12.5031 9.06364 11.8539 8.66415C11.4343 8.4059 10.9767 8.21914 10.5 8.10962" stroke="white" stroke-linecap="round" stroke-linejoin="round"/>
</svg>
