<svg width="15" height="15" viewBox="0 0 15 15" fill="none" xmlns="http://www.w3.org/2000/svg">
<path d="M7.50002 13.9999C6.03526 12.3872 4.04881 11.3427 1.89002 11.0499C1.6443 11.0227 1.41736 10.9054 1.253 10.7208C1.08865 10.5361 0.998519 10.2971 1.00002 10.0499V1.99988C1.00001 1.85544 1.03129 1.71271 1.09171 1.58151C1.15213 1.45032 1.24025 1.33377 1.35002 1.23988C1.45785 1.1477 1.58406 1.07952 1.72027 1.03986C1.85647 1.00021 1.99956 0.989988 2.14002 1.00988C4.20431 1.35249 6.09274 2.38126 7.50002 3.92988V13.9999Z" stroke="white" stroke-linecap="round" stroke-linejoin="round"/>
<path d="M7.5 13.9999C8.96476 12.3872 10.9512 11.3427 13.11 11.0499C13.3557 11.0227 13.5827 10.9054 13.747 10.7208C13.9114 10.5361 14.0015 10.2971 14 10.0499V1.99988C14 1.85544 13.9687 1.71271 13.9083 1.58151C13.8479 1.45032 13.7598 1.33377 13.65 1.23988C13.5422 1.1477 13.416 1.07952 13.2798 1.03986C13.1435 1.00021 13.0005 0.989988 12.86 1.00988C10.7957 1.35249 8.90728 2.38126 7.5 3.92988V13.9999Z" stroke="white" stroke-linecap="round" stroke-linejoin="round"/>
</svg>
