<svg width="15" height="15" viewBox="0 0 15 15" fill="none" xmlns="http://www.w3.org/2000/svg">
<path d="M8 1H3C2.73478 1 2.48043 1.10536 2.29289 1.29289C2.10536 1.48043 2 1.73478 2 2V11L1 14L5 13H13C13.2652 13 13.5196 12.8946 13.7071 12.7071C13.8946 12.5196 14 12.2652 14 12V7" stroke="white" stroke-linecap="round" stroke-linejoin="round"/>
<path d="M8.86328 8.6369L5.86328 9.1769L6.36328 6.1369L11.0933 1.4269C11.1862 1.33317 11.2968 1.25878 11.4187 1.20801C11.5405 1.15724 11.6712 1.1311 11.8033 1.1311C11.9353 1.1311 12.066 1.15724 12.1878 1.20801C12.3097 1.25878 12.4203 1.33317 12.5133 1.4269L13.5733 2.4869C13.667 2.57986 13.7414 2.69047 13.7922 2.81233C13.8429 2.93418 13.8691 3.06489 13.8691 3.1969C13.8691 3.32891 13.8429 3.45962 13.7922 3.58148C13.7414 3.70334 13.667 3.81394 13.5733 3.9069L8.86328 8.6369Z" stroke="white" stroke-linecap="round" stroke-linejoin="round"/>
</svg>
