<svg width="262" height="75" viewBox="0 0 262 75" fill="none" xmlns="http://www.w3.org/2000/svg">
<path d="M0.311286 74V0.370996H8.01786V74H0.311286ZM18.4142 74V20.6789H26.1208V74H18.4142ZM16.4355 7.14028C16.4355 3.18285 18.7267 2.45385 22.3717 2.45385C25.8084 2.45385 28.0995 3.18285 28.0995 7.14028C28.0995 10.8894 25.8084 11.9309 22.3717 11.9309C18.7267 11.9309 16.4355 10.8894 16.4355 7.14028ZM36.5148 74V20.6789H40.1598L42.4509 30.3641C44.5338 24.8446 50.2616 20.054 63.0712 20.054C81.1921 20.054 84.6288 30.1559 84.6288 45.569V74H76.818V44.9441C76.818 33.4884 74.631 26.7191 60.9883 26.7191C47.3456 26.7191 44.3255 33.2801 44.3255 44.9441V74H36.5148ZM94.4873 74V0.370996H102.194V42.7571L126.563 20.6789H138.019L108.442 45.9856L140.623 74H129.479L102.194 49.3181V74H94.4873ZM164.09 74.6249C143.157 74.6249 138.054 61.5029 138.054 47.3394C138.054 33.176 143.261 20.054 163.777 20.054C180.128 20.054 187.522 28.4896 187.522 41.7157H179.607C179.086 32.1346 174.712 26.7191 163.673 26.7191C149.614 26.7191 145.865 35.7796 145.865 47.2353C145.865 58.691 149.51 68.0639 163.777 68.0639C174.921 68.0639 179.19 62.5443 179.607 53.1714H187.522C187.522 66.5017 180.336 74.6249 164.09 74.6249ZM215.131 74.6249C203.78 74.6249 194.615 69.7301 194.615 58.7951C194.615 49.1099 201.384 45.0483 216.485 43.2779L235.856 40.9867C235.751 30.4683 232.627 26.3026 219.193 26.3026C207.008 26.3026 203.78 31.3014 203.78 39.2163H196.073C196.073 28.1771 200.759 20.054 219.089 20.054C240.542 20.054 243.666 29.2186 243.666 43.382V74H239.292L237.626 63.1691C234.71 69.7301 226.274 74.6249 215.131 74.6249ZM202.738 58.691C202.738 65.0437 208.049 68.3763 216.797 68.3763C227.42 68.3763 235.856 62.336 235.856 50.5679V46.9229L217.631 49.4223C206.696 50.8803 202.738 53.2756 202.738 58.691ZM253.549 74V0.370996H261.256V74H253.549Z" fill="white"/>
</svg>
