<svg width="49" height="49" viewBox="0 0 49 49" fill="none" xmlns="http://www.w3.org/2000/svg">
<rect x="7.41699" y="7.45288" width="34.2447" height="34.2447" fill="white"/>
<path d="M26.832 20.3415L28.2344 22.3372L30.3919 20.773V32.0999H32.7112V17.2131H30.7694L26.832 20.3415Z" fill="#1E88E5"/>
<path d="M23.1101 24.2249C23.9731 23.4698 24.5125 22.3371 24.5125 21.1504C24.5125 18.7772 22.4089 16.8354 19.8739 16.8354C17.7164 16.8354 15.8286 18.1839 15.3432 20.1796L17.6085 20.7729C17.8243 19.8559 18.7952 19.2087 19.8739 19.2087C21.1684 19.2087 22.1932 20.0717 22.1932 21.1504C22.1932 22.2292 21.1684 23.0922 19.8739 23.0922H18.5255V25.4654H19.8739C21.3302 25.4654 22.5708 26.4902 22.5708 27.6769C22.5708 28.9174 21.3841 29.8883 19.9278 29.8883C18.6333 29.8883 17.5007 29.0792 17.3388 27.9466L15.0735 28.3241C15.451 30.5355 17.5546 32.2076 19.9818 32.2076C22.7326 32.2076 24.944 30.158 24.944 27.6229C24.89 26.2745 24.1889 25.0339 23.1101 24.2249Z" fill="#1E88E5"/>
<path d="M38.1582 48.9828H10.9739V38.1414H38.1582V48.9828Z" fill="#FBC02D"/>
<path d="M49.0003 38.1412V10.9568H38.1589V38.1412H49.0003Z" fill="#4CAF50"/>
<path d="M38.1587 10.9567V0.115234H4.17833C1.91297 0.115234 0.0791016 1.94911 0.0791016 4.21448V38.195H10.9205V10.9567H38.1587Z" fill="#1E88E5"/>
<path d="M38.1589 38.1414V48.9828L49.0003 38.1414H38.1589Z" fill="#E53935"/>
<path d="M44.955 0.115234H38.1589V10.9567H49.0003V4.16054C49.0003 1.89517 47.2204 0.115234 44.955 0.115234Z" fill="#1565C0"/>
<path d="M4.17883 48.9828H10.9749V38.1414H0.133545V44.9375C0.133545 47.2028 1.91347 48.9828 4.17883 48.9828Z" fill="#1565C0"/>
</svg>
