<svg width="83" height="16" viewBox="0 0 83 16" fill="none" xmlns="http://www.w3.org/2000/svg">
<path d="M16 10.9714V14.1714C16 15.1817 15.1817 16 14.1714 16H10.9714C9.96114 16 9.14286 15.1817 9.14286 14.1714V10.5143C9.14286 9.75771 8.528 9.14286 7.77143 9.14286H2.28571C1.024 9.14286 0 8.11886 0 6.85714V2.28571C0 1.024 1.024 0 2.28571 0H6.85714C8.11886 0 9.14286 1.024 9.14286 2.28571V7.77143C9.14286 8.528 9.75771 9.14286 10.5143 9.14286H14.1714C15.1817 9.14286 16 9.96114 16 10.9714Z" fill="white"/>
<path d="M72.5241 2.96249V4.06877C72.5241 4.2562 72.3709 4.41163 72.1812 4.41163H71.0772C70.8875 4.41163 70.7344 4.2562 70.7344 4.06877V2.96249C70.7344 2.77506 70.8875 2.61963 71.0772 2.61963H72.1812C72.3709 2.61963 72.5241 2.77506 72.5241 2.96249Z" fill="white"/>
<path d="M72.5241 2.96249V4.06877C72.5241 4.2562 72.3709 4.41163 72.1812 4.41163H71.0772C70.8875 4.41163 70.7344 4.2562 70.7344 4.06877V2.96249C70.7344 2.77506 70.8875 2.61963 71.0772 2.61963H72.1812C72.3709 2.61963 72.5241 2.77506 72.5241 2.96249Z" fill="white"/>
<path d="M70.8396 5.35547V13.8469H72.4167V5.35547H70.8396Z" fill="white"/>
<path d="M72.4167 5.35547H70.8396V13.8469H72.4167V5.35547Z" fill="white"/>
<path d="M69.4523 12.3978V13.5041C69.4523 13.6915 69.2992 13.8469 69.1095 13.8469H68.0055C67.8157 13.8469 67.6626 13.6915 67.6626 13.5041V12.3978C67.6626 12.2104 67.8157 12.0549 68.0055 12.0549H69.1095C69.2992 12.0549 69.4523 12.2104 69.4523 12.3978Z" fill="white"/>
<path d="M69.4523 12.3978V13.5041C69.4523 13.6915 69.2992 13.8469 69.1095 13.8469H68.0055C67.8157 13.8469 67.6626 13.6915 67.6626 13.5041V12.3978C67.6626 12.2104 67.8157 12.0549 68.0055 12.0549H69.1095C69.2992 12.0549 69.4523 12.2104 69.4523 12.3978Z" fill="white"/>
<path d="M41.402 9.62071C41.3334 9.55214 41.2922 9.46071 41.2945 9.36242C41.2945 9.26642 41.3357 9.17271 41.4065 9.10871L45.4545 5.35557H43.2557L40.4122 8.31785C40.3437 8.38871 40.2545 8.42757 40.1608 8.42757C39.9642 8.42757 39.8065 8.26985 39.8065 8.07557V2.03442H38.2134V13.847H39.8065V10.6447C39.8065 10.4504 39.9642 10.2927 40.1608 10.2927C40.2568 10.2927 40.346 10.3316 40.4145 10.4024L43.6488 13.847H45.802L41.402 9.62071Z" fill="white"/>
<path d="M45.802 13.847H43.6488L40.4145 10.4024C40.346 10.3316 40.2568 10.2927 40.1608 10.2927C39.9642 10.2927 39.8065 10.4504 39.8065 10.6447V13.847H38.2134V2.03442H39.8065V8.07557C39.8065 8.26985 39.9642 8.42757 40.1608 8.42757C40.2545 8.42757 40.3437 8.38871 40.4122 8.31785L43.2557 5.35557H45.4545L41.4065 9.10871C41.3357 9.17271 41.2945 9.26642 41.2945 9.36242C41.2922 9.46071 41.3334 9.55214 41.402 9.62071L45.802 13.847Z" fill="white"/>
<path d="M33.386 5.23682C31.642 5.23682 30.8534 5.82653 30.538 6.17624C30.4694 6.25396 30.3757 6.2951 30.2751 6.2951C30.1243 6.2951 29.9917 6.1991 29.9437 6.0551L29.7105 5.35567H28.9197V13.8471H30.5128V9.10882C30.5128 7.51339 30.9082 6.52367 32.874 6.52367C34.8397 6.52367 35.1185 7.4311 35.1185 9.10882V13.8471H36.6957V9.26196C36.6957 6.77738 36.1403 5.23682 33.386 5.23682Z" fill="white"/>
<path d="M36.6957 9.26196V13.8471H35.1185V9.10882C35.1185 7.4311 34.7597 6.52367 32.874 6.52367C30.9882 6.52367 30.5128 7.51339 30.5128 9.10882V13.8471H28.9197V5.35567H29.7105L29.9437 6.0551C29.9917 6.1991 30.1243 6.2951 30.2751 6.2951C30.3757 6.2951 30.4694 6.25396 30.538 6.17624C30.8534 5.82653 31.642 5.23682 33.386 5.23682C36.1403 5.23682 36.6957 6.77738 36.6957 9.26196Z" fill="white"/>
<path d="M25.7219 5.35547V13.8469H27.2968V5.35547H25.7219Z" fill="white"/>
<path d="M27.2968 5.35547H25.7219V13.8469H27.2968V5.35547Z" fill="white"/>
<path d="M27.059 2.61963H25.9527C25.7634 2.61963 25.6099 2.77313 25.6099 2.96249V4.06877C25.6099 4.25813 25.7634 4.41163 25.9527 4.41163H27.059C27.2484 4.41163 27.4019 4.25813 27.4019 4.06877V2.96249C27.4019 2.77313 27.2484 2.61963 27.059 2.61963Z" fill="white"/>
<path d="M27.059 2.61963H25.9527C25.7634 2.61963 25.6099 2.77313 25.6099 2.96249V4.06877C25.6099 4.25813 25.7634 4.41163 25.9527 4.41163H27.059C27.2484 4.41163 27.4019 4.25813 27.4019 4.06877V2.96249C27.4019 2.77313 27.2484 2.61963 27.059 2.61963Z" fill="white"/>
<path d="M22.7368 2.03442V13.847H24.33V2.03442H22.7368Z" fill="white"/>
<path d="M24.33 2.03442H22.7368V13.847H24.33V2.03442Z" fill="white"/>
<path d="M50.0031 12.6288C48.2889 12.6288 47.4546 11.6322 47.4546 9.58424C47.4546 7.53624 48.2774 6.48939 49.9689 6.48939C51.3403 6.48939 52.0283 7.1431 52.186 8.60139H53.8226C53.7769 6.42996 52.4306 5.23682 50.0214 5.23682C47.2374 5.23682 45.8271 6.70653 45.8271 9.60253C45.8271 12.4985 47.2489 13.966 50.0557 13.966C52.4786 13.966 53.7792 12.8208 53.8226 10.6517H52.1837C52.026 12.0185 51.3494 12.6288 50.0031 12.6288Z" fill="white"/>
<path d="M52.1837 10.6517H53.8226C53.7792 12.8208 52.4786 13.966 50.0557 13.966C47.2489 13.966 45.8271 12.4985 45.8271 9.60253C45.8271 6.70653 47.2374 5.23682 50.0214 5.23682C52.4306 5.23682 53.7769 6.42996 53.8226 8.60139H52.186C52.0283 7.1431 51.3403 6.48939 49.9689 6.48939C48.2774 6.48939 47.4546 7.50196 47.4546 9.58424C47.4546 11.6665 48.2889 12.6288 50.0031 12.6288C51.3494 12.6288 52.026 12.0185 52.1837 10.6517Z" fill="white"/>
<path d="M59.0773 5.23682C55.8842 5.23682 55.4019 6.80024 55.3767 8.20824L56.9219 8.19453C56.9585 6.97853 57.6145 6.4551 59.0933 6.4551C60.8167 6.4551 61.4179 6.98767 61.4727 8.55796L61.4773 8.66539L58.6293 8.94881C56.1242 9.2071 55.1047 9.91796 55.1047 11.406C55.1047 13.0105 56.323 13.966 58.3619 13.966C59.6373 13.966 60.7847 13.5728 61.4339 12.9122C61.4979 12.846 61.5847 12.8094 61.6785 12.8094C61.8385 12.8094 61.9802 12.9168 62.0236 13.07L62.2453 13.8471H63.0339V9.00596C63.0339 6.94424 62.7345 5.23682 59.0773 5.23682ZM61.4727 10.2151C61.4727 11.8837 60.5562 12.7637 58.8213 12.7637C57.5047 12.7637 56.7482 12.2631 56.7482 11.39C56.7482 10.6242 57.3265 10.2745 58.8762 10.1008L61.4727 9.8151V10.2151Z" fill="white"/>
<path d="M59.0773 5.23682C55.8842 5.23682 55.4019 6.80024 55.3767 8.20824L56.9219 8.19453C56.9585 6.97853 57.6145 6.4551 59.0933 6.4551C60.8167 6.4551 61.4179 6.98767 61.4727 8.55796L61.4773 8.66539L58.6293 8.94881C56.1242 9.2071 55.1047 9.91796 55.1047 11.406C55.1047 13.0105 56.323 13.966 58.3619 13.966C59.6373 13.966 60.7847 13.5728 61.4339 12.9122C61.4979 12.846 61.5847 12.8094 61.6785 12.8094C61.8385 12.8094 61.9802 12.9168 62.0236 13.07L62.2453 13.8471H63.0339V9.00596C63.0339 6.94424 62.7345 5.23682 59.0773 5.23682ZM61.4727 10.2151C61.4727 11.8837 60.5562 12.7637 58.8213 12.7637C57.5047 12.7637 56.7482 12.2631 56.7482 11.39C56.7482 10.6242 57.3265 10.2745 58.8762 10.1008L61.4727 9.8151V10.2151Z" fill="white"/>
<path d="M64.5518 2.03442V13.847H66.1449V2.03442H64.5518Z" fill="white"/>
<path d="M66.1449 2.03442H64.5518V13.847H66.1449V2.03442Z" fill="white"/>
<path d="M78.0145 5.23682C75.2213 5.23682 73.8042 6.70653 73.8042 9.60253C73.8042 12.4985 75.2145 13.966 77.9985 13.966C80.7825 13.966 82.2271 12.4985 82.2271 9.60253C82.2271 7.60939 81.4956 5.23682 78.0145 5.23682ZM77.9985 12.7134C76.8968 12.7134 75.4316 12.3911 75.4316 9.60253C75.4316 8.26539 75.6991 6.48939 78.0145 6.48939C80.3299 6.48939 80.5996 8.15339 80.5996 9.60253C80.5996 11.0517 80.3048 12.7134 77.9985 12.7134Z" fill="white"/>
<path d="M78.0145 5.23682C75.2213 5.23682 73.8042 6.70653 73.8042 9.60253C73.8042 12.4985 75.2145 13.966 77.9985 13.966C80.7825 13.966 82.2271 12.4985 82.2271 9.60253C82.2271 7.60939 81.4956 5.23682 78.0145 5.23682ZM77.9985 12.7134C76.8968 12.7134 75.4316 12.3911 75.4316 9.60253C75.4316 8.26539 75.6991 6.48939 78.0145 6.48939C80.3299 6.48939 80.5996 8.15339 80.5996 9.60253C80.5996 11.0517 80.3048 12.7134 77.9985 12.7134Z" fill="white"/>
</svg>
