<svg width="53" height="49" viewBox="0 0 53 49" fill="none" xmlns="http://www.w3.org/2000/svg">
<rect x="23.7612" y="11.8086" width="25.3039" height="25.3039" fill="#FCFCFC"/>
<path d="M50.5564 9.78564H27.7895C26.892 9.78564 26.1636 10.5168 26.1636 11.4168C26.1636 12.3166 26.892 13.0471 27.7895 13.0471H45.8177L35.8265 20.8383L28.661 16.269L26.918 19.022L35.0486 24.207C35.3122 24.3772 35.6179 24.4614 35.9205 24.4614C36.2718 24.4614 36.6264 24.3474 36.9194 24.1189L48.9304 14.749V35.8757H27.7895C26.892 35.8757 26.1636 36.6062 26.1636 37.5056C26.1636 38.406 26.892 39.1368 27.7895 39.1368H50.5564C51.4543 39.1368 52.1828 38.406 52.1828 37.5056V11.4167C52.1829 10.5168 51.4544 9.78564 50.5564 9.78564Z" fill="#1B80E4"/>
<path d="M28.8268 0.377208C28.4556 0.0673995 27.958 -0.0665126 27.4899 0.0317406L1.47057 4.92313C0.699814 5.0673 0.143555 5.73893 0.143555 6.52474V42.3981C0.143555 43.1808 0.699814 43.8555 1.47057 43.9999L27.4899 48.8914C27.5873 48.9107 27.6881 48.9209 27.7891 48.9209C28.1663 48.9209 28.5337 48.7902 28.8268 48.5452C29.2011 48.236 29.4149 47.7728 29.4149 47.2899V1.63323C29.4148 1.14709 29.201 0.687125 28.8268 0.377208Z" fill="#2299F8"/>
<path d="M14.7787 35.8758C10.2968 35.8758 6.64771 31.4862 6.64771 26.0919C6.64771 20.6981 10.2969 16.3081 14.7787 16.3081C19.2606 16.3081 22.91 20.6981 22.91 26.0919C22.91 31.4862 19.2606 35.8758 14.7787 35.8758ZM14.7787 19.5697C12.089 19.5697 9.90031 22.4948 9.90031 26.0919C9.90031 29.6892 12.089 32.6144 14.7787 32.6144C17.4685 32.6144 19.6579 29.6893 19.6579 26.0919C19.6579 22.4949 17.4685 19.5697 14.7787 19.5697Z" fill="#FCFCFC"/>
</svg>
